<mxfile host="app.diagrams.net" agent="Mozilla/5.0 (Windows NT 10.0; Win64; x64) AppleWebKit/537.36 (KHTML, like Gecko) Chrome/129.0.0.0 Safari/537.36" version="24.7.16">
  <diagram name="Page-1" id="LGxoALC3gwbXX7o3u9yL">
    <mxGraphModel dx="1647" dy="839" grid="1" gridSize="10" guides="1" tooltips="1" connect="1" arrows="1" fold="1" page="1" pageScale="1" pageWidth="850" pageHeight="1100" math="0" shadow="0">
      <root>
        <mxCell id="0" />
        <mxCell id="1" parent="0" />
        <mxCell id="54ZYvBk07yi9IAgB7_Ls-4" value="Send request via Web/Postman" style="html=1;verticalLabelPosition=bottom;align=center;labelBackgroundColor=#ffffff;verticalAlign=top;strokeWidth=2;strokeColor=#0080F0;shadow=0;dashed=0;shape=mxgraph.ios7.icons.user;" parent="1" vertex="1">
          <mxGeometry x="70" y="450" width="70" height="70" as="geometry" />
        </mxCell>
        <mxCell id="54ZYvBk07yi9IAgB7_Ls-10" value="Communicates between API gateway and DynamoDB&lt;div&gt;- read data&lt;/div&gt;&lt;div&gt;- store data&lt;/div&gt;" style="outlineConnect=0;dashed=0;verticalLabelPosition=bottom;verticalAlign=top;align=center;html=1;shape=mxgraph.aws3.lambda_function;fillColor=#F58534;gradientColor=none;" parent="1" vertex="1">
          <mxGeometry x="480" y="448" width="60" height="72" as="geometry" />
        </mxCell>
        <mxCell id="54ZYvBk07yi9IAgB7_Ls-11" value="Amazon DynamoDB" style="sketch=0;outlineConnect=0;fontColor=#232F3E;gradientColor=none;strokeColor=#ffffff;fillColor=#232F3E;dashed=0;verticalLabelPosition=middle;verticalAlign=bottom;align=center;html=1;whiteSpace=wrap;fontSize=10;fontStyle=1;spacing=3;shape=mxgraph.aws4.productIcon;prIcon=mxgraph.aws4.dynamodb;" parent="1" vertex="1">
          <mxGeometry x="660" y="440" width="80" height="110" as="geometry" />
        </mxCell>
        <mxCell id="54ZYvBk07yi9IAgB7_Ls-3" value="Amazon API Gateway" style="sketch=0;outlineConnect=0;fontColor=#232F3E;gradientColor=none;strokeColor=#ffffff;fillColor=#232F3E;dashed=0;verticalLabelPosition=middle;verticalAlign=bottom;align=center;html=1;whiteSpace=wrap;fontSize=10;fontStyle=1;spacing=3;shape=mxgraph.aws4.productIcon;prIcon=mxgraph.aws4.api_gateway;" parent="1" vertex="1">
          <mxGeometry x="260" y="440" width="80" height="110" as="geometry" />
        </mxCell>
        <mxCell id="54ZYvBk07yi9IAgB7_Ls-16" value="" style="edgeStyle=orthogonalEdgeStyle;html=1;endArrow=block;elbow=vertical;startArrow=none;endFill=1;strokeColor=#545B64;rounded=0;" parent="1" edge="1">
          <mxGeometry width="100" relative="1" as="geometry">
            <mxPoint x="140" y="483.5" as="sourcePoint" />
            <mxPoint x="260" y="483.5" as="targetPoint" />
          </mxGeometry>
        </mxCell>
        <mxCell id="54ZYvBk07yi9IAgB7_Ls-17" value="" style="edgeStyle=orthogonalEdgeStyle;html=1;endArrow=block;elbow=vertical;startArrow=none;endFill=1;strokeColor=#545B64;rounded=0;" parent="1" edge="1">
          <mxGeometry width="100" relative="1" as="geometry">
            <mxPoint x="360" y="483.5" as="sourcePoint" />
            <mxPoint x="480" y="483.5" as="targetPoint" />
          </mxGeometry>
        </mxCell>
        <mxCell id="54ZYvBk07yi9IAgB7_Ls-18" value="" style="edgeStyle=orthogonalEdgeStyle;html=1;endArrow=block;elbow=vertical;startArrow=none;endFill=1;strokeColor=#545B64;rounded=0;" parent="1" edge="1">
          <mxGeometry width="100" relative="1" as="geometry">
            <mxPoint x="540" y="483.5" as="sourcePoint" />
            <mxPoint x="660" y="483.5" as="targetPoint" />
          </mxGeometry>
        </mxCell>
        <mxCell id="ASUEpD-Fz-7sT4v3QNiX-1" value="Receive request from user&lt;div&gt;- get&lt;/div&gt;&lt;div&gt;- post&lt;/div&gt;" style="text;html=1;align=center;verticalAlign=middle;whiteSpace=wrap;rounded=0;" vertex="1" parent="1">
          <mxGeometry x="235" y="560" width="130" height="30" as="geometry" />
        </mxCell>
        <mxCell id="ASUEpD-Fz-7sT4v3QNiX-2" value="Stores data" style="text;html=1;align=center;verticalAlign=middle;whiteSpace=wrap;rounded=0;" vertex="1" parent="1">
          <mxGeometry x="670" y="550" width="60" height="30" as="geometry" />
        </mxCell>
      </root>
    </mxGraphModel>
  </diagram>
</mxfile>
